<svg width="46" height="48" viewBox="0 0 46 48" fill="none" xmlns="http://www.w3.org/2000/svg">
<g filter="url(#filter0_d_2550_385)">
<path d="M23 39.0425C19.4316 39.0425 15.9432 37.9844 12.9762 36.0018C10.0091 34.0193 7.69653 31.2014 6.33093 27.9046C4.96534 24.6078 4.60804 20.98 5.30421 17.4801C6.00038 13.9802 7.71876 10.7653 10.2421 8.24205C12.7653 5.71876 15.9802 4.00038 19.4801 3.30421C22.98 2.60804 26.6078 2.96534 29.9046 4.33093C33.2014 5.69653 36.0193 8.00908 38.0018 10.9762C39.9844 13.9432 41.0425 17.4316 41.0425 21C41.0379 25.7838 39.1355 30.3703 35.7529 33.7529C32.3703 37.1355 27.7838 39.0379 23 39.0425V39.0425ZM23 4.70753C19.7777 4.70753 16.6277 5.66307 13.9484 7.45331C11.2691 9.24355 9.18086 11.7881 7.94772 14.7652C6.71458 17.7422 6.39193 21.0181 7.02058 24.1785C7.64923 27.339 9.20094 30.242 11.4795 32.5206C13.758 34.7991 16.6611 36.3508 19.8215 36.9795C22.982 37.6081 26.2578 37.2855 29.2349 36.0523C32.212 34.8192 34.7565 32.7309 36.5467 30.0517C38.337 27.3724 39.2925 24.2224 39.2925 21C39.2833 16.6818 37.5638 12.5431 34.5104 9.4897C31.4569 6.43627 27.3182 4.71677 23 4.70753Z" fill="#95E1D3"/>
<path d="M16.1925 28C15.2407 28 14.3102 27.7178 13.5188 27.1889C12.7274 26.6601 12.1106 25.9085 11.7463 25.0292C11.3821 24.1498 11.2868 23.1822 11.4725 22.2486C11.6582 21.3151 12.1165 20.4576 12.7896 19.7846C13.4626 19.1115 14.3201 18.6532 15.2536 18.4675C16.1872 18.2818 17.1548 18.3771 18.0342 18.7413C18.9135 19.1056 19.6652 19.7224 20.194 20.5138C20.7228 21.3052 21.005 22.2357 21.005 23.1875C21.005 23.8195 20.8805 24.4453 20.6387 25.0292C20.3968 25.613 20.0423 26.1436 19.5955 26.5905C19.1486 27.0373 18.618 27.3918 18.0342 27.6337C17.4503 27.8755 16.8245 28 16.1925 28V28ZM16.1925 20.125C15.5831 20.1253 14.9877 20.3073 14.4823 20.6478C13.977 20.9884 13.5847 21.4719 13.3557 22.0366C13.1267 22.6014 13.0714 23.2216 13.1968 23.8179C13.3223 24.4142 13.6228 24.9596 14.0599 25.3842C14.4969 25.8088 15.0508 26.0933 15.6505 26.2014C16.2502 26.3095 16.8685 26.2363 17.4264 25.991C17.9842 25.7457 18.4562 25.3396 18.782 24.8246C19.1077 24.3096 19.2724 23.7091 19.255 23.1C19.2504 22.2892 18.9263 21.5129 18.3529 20.9396C17.7796 20.3662 17.0033 20.0421 16.1925 20.0375V20.125Z" fill="#95E1D3"/>
<path d="M29.8075 28C28.8557 28 27.9252 27.7178 27.1338 27.1889C26.3424 26.6601 25.7256 25.9085 25.3613 25.0292C24.9971 24.1498 24.9018 23.1822 25.0875 22.2486C25.2732 21.3151 25.7315 20.4576 26.4045 19.7846C27.0776 19.1115 27.9351 18.6532 28.8686 18.4675C29.8022 18.2818 30.7698 18.3771 31.6492 18.7413C32.5285 19.1056 33.2801 19.7224 33.8089 20.5138C34.3377 21.3052 34.62 22.2357 34.62 23.1875C34.62 24.4639 34.113 25.6879 33.2104 26.5905C32.3079 27.493 31.0839 28 29.8075 28ZM29.8075 20.125C29.2018 20.125 28.6097 20.3046 28.1061 20.6411C27.6024 20.9776 27.2099 21.4559 26.9781 22.0155C26.7463 22.5751 26.6857 23.1909 26.8038 23.785C26.922 24.379 27.2137 24.9247 27.642 25.353C28.0703 25.7813 28.616 26.073 29.21 26.1912C29.8041 26.3093 30.4199 26.2487 30.9795 26.0169C31.5391 25.7851 32.0174 25.3926 32.3539 24.8889C32.6904 24.3853 32.87 23.7932 32.87 23.1875C32.8817 22.778 32.8111 22.3704 32.6625 21.9886C32.5138 21.6069 32.2901 21.2589 32.0045 20.9652C31.719 20.6715 31.3774 20.438 31 20.2787C30.6227 20.1194 30.2171 20.0373 29.8075 20.0375V20.125Z" fill="#95E1D3"/>
<path d="M6.23505 18.13C6.03334 18.13 5.8378 18.0604 5.68154 17.9328C5.52528 17.8053 5.41789 17.6276 5.37755 17.43C5.33576 17.203 5.3835 16.9687 5.51076 16.7762C5.63801 16.5837 5.83488 16.448 6.06005 16.3975C6.25255 16.3625 25.1875 12.25 30.28 5.24999C30.3477 5.15672 30.4331 5.07772 30.5313 5.01754C30.6296 4.95735 30.7387 4.91717 30.8526 4.89928C30.9664 4.88139 31.0826 4.88616 31.1946 4.91331C31.3066 4.94046 31.4121 4.98946 31.5051 5.05749C31.6896 5.19692 31.8129 5.40257 31.8488 5.6311C31.8847 5.85962 31.8305 6.09316 31.6975 6.28249C26.2025 13.825 7.25005 17.9375 6.42755 18.1125L6.23505 18.13Z" fill="#95E1D3"/>
<path d="M35.25 15.2251C30.9146 15.0804 26.6431 14.1372 22.65 12.4426C22.4365 12.3497 22.2686 12.1759 22.1833 11.9593C22.098 11.7427 22.1022 11.5011 22.195 11.2876C22.2878 11.0741 22.4617 10.9062 22.6783 10.8209C22.8949 10.7355 23.1365 10.7397 23.35 10.8326C23.4375 10.8326 31.645 14.4901 38.54 13.1951C38.7694 13.1538 39.0059 13.2039 39.1988 13.3347C39.3918 13.4655 39.5259 13.6667 39.5725 13.8951C39.6134 14.1224 39.5628 14.3567 39.4316 14.5468C39.3005 14.7369 39.0995 14.8675 38.8725 14.9101C37.678 15.1318 36.4648 15.2373 35.25 15.2251V15.2251Z" fill="#95E1D3"/>
<path d="M25.87 23.975H20.13C19.8979 23.975 19.6754 23.8828 19.5113 23.7187C19.3472 23.5546 19.255 23.332 19.255 23.1C19.2595 22.8693 19.3531 22.6493 19.5162 22.4862C19.6794 22.3231 19.8993 22.2295 20.13 22.225H25.87C26.1007 22.2295 26.3206 22.3231 26.4838 22.4862C26.6469 22.6493 26.7405 22.8693 26.745 23.1C26.745 23.332 26.6528 23.5546 26.4887 23.7187C26.3246 23.8828 26.1021 23.975 25.87 23.975Z" fill="#95E1D3"/>
<path d="M12.255 23.975H5.97253C5.74047 23.975 5.51791 23.8828 5.35382 23.7187C5.18972 23.5546 5.09753 23.332 5.09753 23.1C5.10201 22.8693 5.19564 22.6493 5.35877 22.4862C5.52191 22.3231 5.74187 22.2295 5.97253 22.225H12.255C12.4871 22.225 12.7097 22.3172 12.8738 22.4813C13.0378 22.6454 13.13 22.8679 13.13 23.1C13.13 23.332 13.0378 23.5546 12.8738 23.7187C12.7097 23.8828 12.4871 23.975 12.255 23.975Z" fill="#95E1D3"/>
<path d="M40.045 23.975H33.745C33.5129 23.975 33.2904 23.8828 33.1263 23.7187C32.9622 23.5546 32.87 23.332 32.87 23.1C32.87 22.8679 32.9622 22.6454 33.1263 22.4813C33.2904 22.3172 33.5129 22.225 33.745 22.225H40.045C40.2771 22.225 40.4996 22.3172 40.6637 22.4813C40.8278 22.6454 40.92 22.8679 40.92 23.1C40.92 23.332 40.8278 23.5546 40.6637 23.7187C40.4996 23.8828 40.2771 23.975 40.045 23.975Z" fill="#95E1D3"/>
</g>
<defs>
<filter id="filter0_d_2550_385" x="-2" y="0" width="50" height="50" filterUnits="userSpaceOnUse" color-interpolation-filters="sRGB">
<feFlood flood-opacity="0" result="BackgroundImageFix"/>
<feColorMatrix in="SourceAlpha" type="matrix" values="0 0 0 0 0 0 0 0 0 0 0 0 0 0 0 0 0 0 127 0" result="hardAlpha"/>
<feOffset dy="4"/>
<feGaussianBlur stdDeviation="2"/>
<feComposite in2="hardAlpha" operator="out"/>
<feColorMatrix type="matrix" values="0 0 0 0 0 0 0 0 0 0 0 0 0 0 0 0 0 0 0.25 0"/>
<feBlend mode="normal" in2="BackgroundImageFix" result="effect1_dropShadow_2550_385"/>
<feBlend mode="normal" in="SourceGraphic" in2="effect1_dropShadow_2550_385" result="shape"/>
</filter>
</defs>
</svg>
