<svg width="32" height="26" viewBox="0 0 32 26" fill="none" xmlns="http://www.w3.org/2000/svg">
<g filter="url(#filter0_d_18777_232)">
<path d="M30.3333 10.7731C30.3364 10.9178 30.2893 11.0592 30.2 11.1731L23.3733 20.3064C23.3112 20.3902 23.231 20.4589 23.1387 20.5074C23.0463 20.5558 22.9442 20.5829 22.84 20.5864H9.17335C9.06684 20.5849 8.96212 20.5588 8.86732 20.5103C8.77251 20.4617 8.69017 20.392 8.62668 20.3064L1.80001 11.1731C1.71547 11.0569 1.66992 10.9168 1.66992 10.7731C1.66992 10.6294 1.71547 10.4893 1.80001 10.3731L8.62668 1.23976C8.69085 1.15592 8.77365 1.08818 8.86854 1.04189C8.96342 0.99561 9.06778 0.972053 9.17335 0.973091H22.84C22.9433 0.974101 23.0451 0.998641 23.1375 1.04485C23.2299 1.09105 23.3105 1.15771 23.3733 1.23976L30.2 10.3731C30.2874 10.488 30.3343 10.6287 30.3333 10.7731V10.7731ZM22.5067 19.2531L28.84 10.7731L22.5067 2.30642H9.50668L3.16001 10.7731L9.50668 19.2531H22.5067Z" fill="#95E1D3"/>
<path d="M22.7734 10.7732C22.7765 10.9179 22.7294 11.0593 22.6401 11.1732L19.5867 15.2665C19.5239 15.3486 19.4433 15.4152 19.3508 15.4614C19.2584 15.5077 19.1567 15.5322 19.0534 15.5332H12.9467C12.8434 15.5322 12.7417 15.5077 12.6493 15.4614C12.5569 15.4152 12.4762 15.3486 12.4134 15.2665L9.33339 11.1732C9.24251 11.0597 9.19299 10.9186 9.19299 10.7732C9.19299 10.6278 9.24251 10.4867 9.33339 10.3732L12.3867 6.2932C12.4473 6.20881 12.5275 6.14042 12.6204 6.09396C12.7134 6.0475 12.8162 6.02436 12.9201 6.02654H19.0267C19.1306 6.02436 19.2334 6.0475 19.3263 6.09396C19.4193 6.14042 19.4995 6.20881 19.5601 6.2932L22.6667 10.3732C22.7447 10.4914 22.7821 10.6318 22.7734 10.7732ZM18.6667 14.1999L21.3334 10.7732L18.6667 7.3332H13.3334L10.6667 10.7732L13.3334 14.1999H18.6667Z" fill="#95E1D3"/>
</g>
<defs>
<filter id="filter0_d_18777_232" x="-2.33008" y="0.973145" width="36.6636" height="27.6133" filterUnits="userSpaceOnUse" color-interpolation-filters="sRGB">
<feFlood flood-opacity="0" result="BackgroundImageFix"/>
<feColorMatrix in="SourceAlpha" type="matrix" values="0 0 0 0 0 0 0 0 0 0 0 0 0 0 0 0 0 0 127 0" result="hardAlpha"/>
<feOffset dy="4"/>
<feGaussianBlur stdDeviation="2"/>
<feComposite in2="hardAlpha" operator="out"/>
<feColorMatrix type="matrix" values="0 0 0 0 0 0 0 0 0 0 0 0 0 0 0 0 0 0 0.25 0"/>
<feBlend mode="normal" in2="BackgroundImageFix" result="effect1_dropShadow_18777_232"/>
<feBlend mode="normal" in="SourceGraphic" in2="effect1_dropShadow_18777_232" result="shape"/>
</filter>
</defs>
</svg>
